<svg xmlns="http://www.w3.org/2000/svg" width="30" height="30" viewBox="0 0 30 30">
  <g id="Group_214" data-name="Group 214" transform="translate(-213 -139)">
    <rect id="Rectangle_68" data-name="Rectangle 68" width="30" height="30" rx="5" transform="translate(213 139)" opacity="0.21"/>
    <g id="noun-road-sign-5113636" transform="translate(208.96 135.46)">
      <g id="Group_172" data-name="Group 172" transform="translate(11.03 11.03)">
        <path id="Path_47" data-name="Path 47" d="M20.286,11.544l6.25,6.25a1.767,1.767,0,0,1,0,2.493l-6.25,6.25a1.767,1.767,0,0,1-2.493,0l-6.25-6.25a1.767,1.767,0,0,1,0-2.493l6.25-6.25A1.767,1.767,0,0,1,20.286,11.544Zm-.323,8.394a.392.392,0,1,1-.569-.538l.97-1.026H19.094A1.8,1.8,0,0,0,17.3,20.163v2.183a.394.394,0,0,1-.788,0V20.163a2.583,2.583,0,0,1,2.577-2.577h1.271l-.97-1.025a.392.392,0,1,1,.569-.538l1.6,1.687v0h0a.4.4,0,0,1,.037.046l0,0,0,.006,0,0,.009.015h0l0,.008v0l0,.006,0,0,0,.006,0,.005,0,0,0,0,0,.006v0l0,.005,0,.006v0c0,.006,0,.011.006.017h0a.262.262,0,0,1,.008.027h0c0,.009,0,.017.006.027v.01h0v.037h0V18h0v.037h0v.01a.247.247,0,0,1-.006.027h0a.261.261,0,0,1-.008.027h0l-.006.017v0l0,.006,0,.006v0l0,.006,0,0,0,0,0,0,0,.006,0,0,0,.006v0l0,.007h0l-.009.015,0,0,0,.006,0,0a.451.451,0,0,1-.037.046h0v0l-1.6,1.687Z" transform="translate(-11.03 -11.03)" fill="#cacbd2" fill-rule="evenodd"/>
      </g>
    </g>
  </g>
</svg>
