<svg xmlns="http://www.w3.org/2000/svg" width="30" height="30" viewBox="0 0 30 30">
  <g id="Group_215" data-name="Group 215" transform="translate(-356 -139)">
    <rect id="Rectangle_68" data-name="Rectangle 68" width="30" height="30" rx="5" transform="translate(356 139)" opacity="0.21"/>
    <g id="noun-traffic-cone-182999" transform="translate(350.853 141.23)">
      <path id="Path_40" data-name="Path 40" d="M86.332,75.921v.005a.006.006,0,0,0,0-.005Z" transform="translate(-59.698 -58.047)" fill="#cacbd2"/>
      <path id="Path_41" data-name="Path 41" d="M26.634,65.845v.007c0,.016,0,.032,0,.046-.025.491-.018.675-.252.764s-6.359,2.31-6.773,2.458a1.935,1.935,0,0,1-2.112-.489c-.734-.805-3.642-3.162-3.642-3.162-.2-.175-.193-.3-.193-.8l.068-.07.009-.009.116-.122a4.267,4.267,0,0,1,.857-.35L16.3,63.69l.063-.016v0l-.063.016-.318,1.032a1.194,1.194,0,0,0-.043.15l-.005.03c-.02.15-.03.232-.03.245,0,1.139,1.832,2.065,4.083,2.065a7.181,7.181,0,0,0,.93-.057l.007,0a.011.011,0,0,0,.007,0l.007,0a.011.011,0,0,0,.007,0,6.069,6.069,0,0,0,1.635-.409l0,0c.893-.373,1.467-.933,1.484-1.56h0l-.009-.087a2.544,2.544,0,0,0-.1-.519l-.243-.875-.066-.046v0l.068.046L26.2,65.4s.416.193.436.441A.017.017,0,0,1,26.634,65.845Z" transform="translate(0 -47.966)" fill="#cacbd2"/>
      <path id="Path_42" data-name="Path 42" d="M53.525,5.7l-.005-.005h0Z" transform="translate(-32.745 -0.354)" fill="#cacbd2"/>
      <path id="Path_43" data-name="Path 43" d="M53.525,5.7l-.005-.005h0Z" transform="translate(-32.745 -0.354)" fill="#cacbd2"/>
      <path id="Path_44" data-name="Path 44" d="M34.566,17.71l0-.034a2.62,2.62,0,0,0-.1-.507l-.259-.935L31.35,5.937c-.021.086-.293.154-.623.154s-.616-.071-.623-.161L26.915,16.259l-.33,1.067a1.35,1.35,0,0,0-.046.166s-.029.225-.029.239c0,1.116,1.8,2.012,4.029,2.012a7.621,7.621,0,0,0,1.506-.146l.018,0c.205-.041.4-.091.591-.148,1.148-.352,1.912-.982,1.912-1.708a.058.058,0,0,0,0-.027h0Zm-5.329-8.6a3.058,3.058,0,0,0,2.885.073l.582,2.126a3.433,3.433,0,0,1-4.106-.13ZM27.36,15.172l.71-2.287c2.483,1.182,3.738,1.057,5.082.039l.634,2.314C33.176,16.445,29.215,17.052,27.36,15.172Z" transform="translate(-10.556 -0.55)" fill="#cacbd2"/>
      <path id="Path_45" data-name="Path 45" d="M53.55,5.721l.012.045a.023.023,0,0,0,0-.011A.052.052,0,0,0,53.55,5.721Z" transform="translate(-32.769 -0.379)" fill="#cacbd2"/>
      <path id="Path_46" data-name="Path 46" d="M48.543,5.371c0,.059-.2.109-.446.109s-.443-.048-.446-.107v0c0-.061.2-.111.446-.111a.806.806,0,0,1,.43.082A.037.037,0,0,1,48.543,5.371Z" transform="translate(-27.923)" fill="#cacbd2"/>
    </g>
  </g>
</svg>
