<svg xmlns="http://www.w3.org/2000/svg" width="30" height="30" viewBox="0 0 30 30">
  <g id="Group_216" data-name="Group 216" transform="translate(-499 -139)">
    <rect id="Rectangle_68" data-name="Rectangle 68" width="30" height="30" rx="5" transform="translate(499 139)" opacity="0.21"/>
    <g id="noun-distance-4569100" transform="translate(504.866 144.366)">
      <path id="Path_48" data-name="Path 48" d="M4.377,2A2.379,2.379,0,0,0,2,4.376a2.349,2.349,0,0,0,.334,1.213L4.047,8.166a.41.41,0,0,0,.33.174.4.4,0,0,0,.33-.174L6.432,5.571A2.372,2.372,0,0,0,4.377,2Zm0,3.17a.789.789,0,1,1,.563-.231.791.791,0,0,1-.563.231Z" transform="translate(0 0)" fill="#cacbd2"/>
      <path id="Path_49" data-name="Path 49" d="M19.3,8.22a4.223,4.223,0,0,0-4.218,4.218,4.164,4.164,0,0,0,.584,2.136l3.3,4.963a.391.391,0,0,0,.33.178.4.4,0,0,0,.33-.178l3.036-4.557.276-.424a4.131,4.131,0,0,0,.575-2.118A4.223,4.223,0,0,0,19.3,8.22Zm0,5.747a1.529,1.529,0,1,1,1.529-1.529A1.529,1.529,0,0,1,19.3,13.967Z" transform="translate(-7.248 -3.447)" fill="#cacbd2"/>
      <path id="Path_50" data-name="Path 50" d="M12.786,24.341a5.555,5.555,0,0,1-5.549-5.549v-.4a.4.4,0,1,0-.793,0v.4a6.349,6.349,0,0,0,6.341,6.341.4.4,0,1,0,0-.793Z" transform="translate(-2.463 -8.866)" fill="#cacbd2"/>
    </g>
  </g>
</svg>
