<svg xmlns="http://www.w3.org/2000/svg" width="54.664" height="54.664" viewBox="0 0 54.664 54.664">
  <path id="Icon_awesome-user-circle" data-name="Icon awesome-user-circle" d="M27.332.563A27.332,27.332,0,1,0,54.664,27.895,27.328,27.328,0,0,0,27.332.563Zm0,10.58a9.7,9.7,0,1,1-9.7,9.7A9.7,9.7,0,0,1,27.332,11.143Zm0,37.912a21.119,21.119,0,0,1-16.146-7.516,12.288,12.288,0,0,1,10.856-6.591,2.7,2.7,0,0,1,.782.121,14.592,14.592,0,0,0,4.508.76,14.537,14.537,0,0,0,4.508-.76,2.7,2.7,0,0,1,.782-.121,12.288,12.288,0,0,1,10.856,6.591A21.119,21.119,0,0,1,27.332,49.055Z" transform="translate(0 -0.563)" fill="#fff"/>
</svg>
