<svg id="Group_209" data-name="Group 209" xmlns="http://www.w3.org/2000/svg" xmlns:xlink="http://www.w3.org/1999/xlink" width="44.526" height="45.536" viewBox="0 0 44.526 45.536">
  <defs>
    <clipPath id="clip-path">
      <rect id="Rectangle_77" data-name="Rectangle 77" width="37.565" height="40.267" fill="none"/>
    </clipPath>
    <clipPath id="clip-path-2">
      <path id="Path_56" data-name="Path 56" d="M19.059,12.1c-.252,0-.5-.02-.754-.01A19.231,19.231,0,0,0,.017,30.291c-.01.244-.016.485-.017.727v.245a19.063,19.063,0,0,0,11.8,17.5,6.2,6.2,0,0,1,2.708,2.2l4.553,6.556,4.553-6.556a6.192,6.192,0,0,1,2.707-2.2,19.061,19.061,0,0,0-6.507-36.669l-.157,0c-.2,0-.4.013-.595.013" transform="translate(0 -12.091)" fill="#fefffe"/>
    </clipPath>
    <clipPath id="clip-path-3">
      <rect id="Rectangle_76" data-name="Rectangle 76" width="25.839" height="22.682" fill="none"/>
    </clipPath>
  </defs>
  <g id="Group_192" data-name="Group 192" transform="translate(6.962 5.268)" opacity="0.4">
    <g id="Group_191" data-name="Group 191" transform="translate(0 0)">
      <g id="Group_190" data-name="Group 190" clip-path="url(#clip-path)">
        <path id="Path_55" data-name="Path 55" d="M43.124,32.648c2.026-8.657-3.69-15.8-12.913-16.13-.24-.009-.481.008-.721.008s-.47-.017-.715-.008c-9.411.334-19.134,7.472-21.966,16.13C4.4,40.018,7.346,46.4,13.446,49.02a3.911,3.911,0,0,1,2.035,1.952l2.712,5.811,5.973-5.811A8.57,8.57,0,0,1,27.3,49.02c7.571-2.62,14.1-9,15.829-16.372" transform="translate(-5.967 -16.516)"/>
      </g>
    </g>
  </g>
  <g id="Group_196" data-name="Group 196" transform="translate(0 0.106)">
    <g id="Group_195" data-name="Group 195" transform="translate(0 0)" clip-path="url(#clip-path-2)">
      <rect id="Rectangle_79" data-name="Rectangle 79" width="57.713" height="54.51" transform="matrix(0.439, -0.898, 0.898, 0.439, -17.932, 36.66)" fill="#fefffe"/>
    </g>
  </g>
  <g id="Group_189" data-name="Group 189" transform="translate(6.139 6.761)">
    <g id="Group_188" data-name="Group 188" transform="translate(0 0)" clip-path="url(#clip-path-3)">
      <path id="Path_48" data-name="Path 48" d="M11.909.583.161,20.932a1.14,1.14,0,0,0,0,1.167,1.138,1.138,0,0,0,1.01.583h23.5a1.167,1.167,0,0,0,1.01-1.75L13.929.583a1.167,1.167,0,0,0-2.021,0" transform="translate(0 0)" fill="#ffdc00" fill-rule="evenodd"/>
      <path id="Path_49" data-name="Path 49" d="M19.376,69.853c1.157.607,1.569.6,2.065,2.176l-7.959.016c.9-1.566,1.88-3.281,2.776-4.847,1.38.366,2.273,2.211,3.119,2.655" transform="translate(-10.332 -51.503)" fill="#050605" fill-rule="evenodd"/>
      <path id="Path_50" data-name="Path 50" d="M33.139,46.23l-.882.517-.884-2.031h.841Zm-2.508,1.4-1.3.726.587-2Zm-2.666,1.49L22.328,52.27l.326.584,6.037-3.373a.628.628,0,0,0,.271-.152l4.873-2.722a.627.627,0,0,0,.208-.08.618.618,0,0,0,.206-.849l-1.163-1.9a.618.618,0,0,0-.527-.3H30.511c-.593,0-1.088-.021-1.255.751L27.942,48.71a.614.614,0,0,0,.023.411" transform="translate(-17.113 -33.323)" fill="#050605" fill-rule="evenodd"/>
      <path id="Path_51" data-name="Path 51" d="M60.865,64.672l-.032.949,0,.191.1.158,1.7,2.636a.607.607,0,0,0,.837.181l.019-.012a.607.607,0,0,0,.182-.84l-1.6-2.476L62.1,64Z" transform="translate(-46.621 -49.049)" fill="#050605" fill-rule="evenodd"/>
      <path id="Path_52" data-name="Path 52" d="M46.094,38.3a1.187,1.187,0,1,1,1.011-1.174A1.1,1.1,0,0,1,46.094,38.3" transform="translate(-34.553 -27.554)" fill="#050605" fill-rule="evenodd"/>
      <path id="Path_53" data-name="Path 53" d="M52.476,59.888a.6.6,0,0,0-.588-1.036L48.8,60.609a.594.594,0,0,0-.3.541l-.03,3.367a.595.595,0,0,0,1.19.009l.027-3.051Z" transform="translate(-37.148 -45.048)" fill="#050605" fill-rule="evenodd"/>
      <path id="Path_54" data-name="Path 54" d="M14.816,1.972,26.564,22.321a.8.8,0,0,1-.692,1.2H2.375a.8.8,0,0,1-.692-1.2L13.431,1.972a.8.8,0,0,1,1.385,0m8.273,18.553L14.633,5.88a.588.588,0,0,0-1.018,0L5.159,20.525a.588.588,0,0,0,.509.882H22.579a.588.588,0,0,0,.51-.882" transform="translate(-1.204 -1.205)" fill="#e60019" fill-rule="evenodd"/>
    </g>
  </g>
  <g id="Ellipse_17" data-name="Ellipse 17" transform="translate(23.43)" fill="#df2222" stroke="#fff" stroke-width="1.5">
    <circle cx="8.166" cy="8.166" r="8.166" stroke="none"/>
    <circle cx="8.166" cy="8.166" r="7.416" fill="none"/>
  </g>
</svg>
