<svg xmlns="http://www.w3.org/2000/svg" width="33" height="33.818" viewBox="0 0 33 33.818">
  <g id="Layer_1" data-name="Layer 1" transform="translate(-0.004 -14.349)">
    <g id="Group_985" data-name="Group 985" transform="translate(0.004 14.349)">
      <g id="Group_983" data-name="Group 983">
        <g id="Group_982" data-name="Group 982">
          <path id="Path_223" data-name="Path 223" d="M33.464,27.749c1.511-6.443-2.744-11.756-9.612-12h-.538c-.182,0-.347-.009-.53,0-7.007.252-14.24,5.557-16.349,12-1.8,5.487.4,10.237,4.94,12.182a2.871,2.871,0,0,1,1.511,1.45L14.9,45.7l4.446-4.324a6.333,6.333,0,0,1,2.327-1.45c5.635-1.954,10.5-6.7,11.782-12.182Z" transform="translate(-0.769 -11.895)" opacity="0.4"/>
          <path id="Path_224" data-name="Path 224" d="M28.35,24.864A14.316,14.316,0,0,0,14.744,11.319h-.564c-.191,0-.373-.017-.564,0A14.314,14.314,0,0,0,.018,24.864a14.172,14.172,0,0,0,8.77,13.745A4.591,4.591,0,0,1,10.8,40.25l3.386,4.88,3.386-4.88a4.591,4.591,0,0,1,2.014-1.641,14.2,14.2,0,0,0,8.77-13.745Z" transform="translate(-0.004 -11.311)" fill="#2680eb"/>
        </g>
        <g id="noun-work-in-progress-215093" transform="translate(6.634 6.409)">
          <g id="Group_9679" data-name="Group 9679" transform="translate(0)">
            <path id="Path_3739" data-name="Path 3739" d="M17.219,35.1h8.266l-2.912-5.072a5.363,5.363,0,0,0-1.916,1.86l-3.325-1.935-1.5-5.636a1.325,1.325,0,0,0-.733-.827h0a.843.843,0,0,0-.357-.094H12.165a.973.973,0,0,0-.864.545L10.118,25.88a.756.756,0,0,0,.207.977l1.578.921-.056.075a.767.767,0,0,0,.244.939l3.344,1.86v3.607a.693.693,0,0,0,.7.7h.019a.643.643,0,0,0,.507-.225.656.656,0,0,0,.188-.451V30.6l3.306,1.9c-.751.7-1.578.357-2.179,1.014A3.812,3.812,0,0,0,17.219,35.1Zm-4.9-8.041-1.071-.62,1.09-1.822h1.39Zm1.954,1.146.921-1.6.7,2.517Z" transform="translate(-9.973 -21.352)" fill="#fff"/>
            <path id="Path_3740" data-name="Path 3740" d="M45.3,27Z" transform="translate(-38.618 -24.276)" fill="#fff"/>
            <path id="Path_3741" data-name="Path 3741" d="M45.3,27Z" transform="translate(-38.618 -24.276)" fill="#fff"/>
            <path id="Path_3742" data-name="Path 3742" d="M40.1,15.224a1.251,1.251,0,0,0,1.165-1.409,1.35,1.35,0,0,0-1.184-1.3h0a1.071,1.071,0,0,0-.244-.019c-.733,0-.939.658-.939,1.465A1.15,1.15,0,0,0,40.1,15.224Z" transform="translate(-33.42 -12.5)" fill="#fff"/>
            <path id="Path_3743" data-name="Path 3743" d="M13.125,53.945l-1.5-.845.188,1.052c.019.225.169.676,0,.9L9.838,57.872a.774.774,0,0,0,.169.977.728.728,0,0,0,.977-.188l2.123-3.043a2.049,2.049,0,0,0,.169-1C13.276,54.64,13.2,53.983,13.125,53.945Z" transform="translate(-9.731 -45.473)" fill="#fff"/>
          </g>
        </g>
      </g>
    </g>
  </g>
</svg>
