<svg xmlns="http://www.w3.org/2000/svg" width="32.554" height="32.554" viewBox="0 0 32.554 32.554">
  <g id="Group_28" data-name="Group 28" transform="translate(-1313 -90)">
    <rect id="Rectangle_18" data-name="Rectangle 18" width="32" height="32" rx="5" transform="matrix(1, -0.017, 0.017, 1, 1313, 90.558)" fill="#d8cfcf"/>
    <path id="Icon_awesome-trash" data-name="Icon awesome-trash" d="M8.158.6H5.892L5.714.251A.453.453,0,0,0,5.308,0H3.15a.448.448,0,0,0-.4.251L2.568.6H.3a.3.3,0,0,0-.3.3v.6a.3.3,0,0,0,.3.3H8.158a.3.3,0,0,0,.3-.3v-.6A.3.3,0,0,0,8.158.6ZM1,8.819a.906.906,0,0,0,.9.85H6.551a.906.906,0,0,0,.9-.85l.4-6.4H.6Z" transform="translate(1325 102)" fill="#b72525"/>
  </g>
</svg>
